<svg width="20" height="20" viewBox="0 0 20 20" fill="none" xmlns="http://www.w3.org/2000/svg">
<g id="clarity:clock-solid" clip-path="url(#clip0_627_80)">
<path id="Vector" d="M9.99998 1.11111C8.24192 1.11111 6.52334 1.63244 5.06157 2.60916C3.5998 3.58589 2.46049 4.97414 1.78771 6.59837C1.11494 8.22261 0.938906 10.0099 1.28189 11.7341C1.62487 13.4584 2.47145 15.0423 3.71458 16.2854C4.95772 17.5285 6.54157 18.3751 8.26584 18.7181C9.99012 19.0611 11.7774 18.885 13.4016 18.2123C15.0258 17.5395 16.4141 16.4002 17.3908 14.9384C18.3675 13.4766 18.8889 11.7581 18.8889 10C18.8889 7.64252 17.9524 5.3816 16.2854 3.71461C14.6184 2.04762 12.3575 1.11111 9.99998 1.11111ZM13.4444 12.8778C13.4041 12.9389 13.352 12.9913 13.2913 13.0322C13.2306 13.0731 13.1624 13.1016 13.0906 13.1161C13.0189 13.1305 12.945 13.1307 12.8732 13.1165C12.8014 13.1023 12.7331 13.074 12.6722 13.0333L9.39442 10.8111V5.97223C9.39442 5.82488 9.45295 5.68358 9.55714 5.57939C9.66133 5.4752 9.80264 5.41667 9.94998 5.41667C10.0973 5.41667 10.2386 5.4752 10.3428 5.57939C10.447 5.68358 10.5055 5.82488 10.5055 5.97223V10.2222L13.2833 12.1056C13.3448 12.1455 13.3978 12.1972 13.4393 12.2577C13.4807 12.3182 13.5097 12.3863 13.5247 12.4581C13.5397 12.5299 13.5403 12.6039 13.5265 12.676C13.5127 12.748 13.4848 12.8166 13.4444 12.8778ZM13.25 4.57223C12.4683 4.10107 11.5939 3.80459 10.6869 3.70312C9.77983 3.60166 8.86157 3.69761 7.9951 3.98441C7.12862 4.2712 6.33445 4.74204 5.66705 5.36462C4.99966 5.98721 4.47484 6.7468 4.12861 7.59129C3.78239 8.43577 3.62294 9.34516 3.66122 10.2571C3.6995 11.169 3.93459 12.0618 4.35038 12.8743C4.76616 13.6868 5.35278 14.3997 6.07001 14.9642C6.78723 15.5287 7.61807 15.9313 8.50553 16.1444L8.33331 17.0167C7.3155 16.7798 6.36123 16.3248 5.53636 15.6832C4.7115 15.0416 4.0357 14.2286 3.5556 13.3004C3.07551 12.3722 2.80257 11.3509 2.75563 10.3069C2.70868 9.26298 2.88884 8.22126 3.28368 7.25371C3.67852 6.28616 4.27862 5.41581 5.04256 4.70276C5.80651 3.98971 6.71609 3.45093 7.70853 3.12363C8.70097 2.79633 9.75261 2.6883 10.7909 2.80699C11.8291 2.92568 12.8292 3.26827 13.7222 3.81111L13.25 4.57223Z" fill="black"/>
</g>
<defs>
<clipPath id="clip0_627_80">
<rect width="20" height="20" fill="white"/>
</clipPath>
</defs>
</svg>
