<svg width="14" height="14" viewBox="0 0 14 14" fill="none" xmlns="http://www.w3.org/2000/svg">
<g id="file-icons:microsoft-excel" clip-path="url(#clip0_736_429)">
<path id="Vector" d="M12.6944 7.64982H10.4154V6.51027H12.6944V7.64982ZM12.6944 8.30096H10.4154V9.44052H12.6944V8.30096ZM12.6944 2.92888H10.4154V4.0684H12.6944V2.92888ZM12.6944 4.71957H10.4154V5.8591H12.6944V4.71957ZM12.6944 10.0917H10.4154V11.2312H12.6944V10.0916V10.0917ZM14.2686 12.3382C14.2035 12.6768 13.7965 12.6849 13.5247 12.6963H8.46188V14.1614H7.45093L0 12.8591V1.4654L7.4949 0.161438H8.46188V1.45888H13.3505C13.6256 1.47027 13.9284 1.45073 14.1677 1.61514C14.3354 1.85608 14.3191 2.16214 14.3305 2.43887L14.324 10.9138C14.3159 11.3875 14.3679 11.871 14.2686 12.3382ZM5.96952 9.784C5.52024 8.87239 5.06281 7.96725 4.61512 7.05561C5.05791 6.16841 5.49421 5.27796 5.92885 4.38748C5.55931 4.40539 5.18977 4.42817 4.82188 4.45423C4.54674 5.12329 4.22604 5.77446 4.01117 6.46632C3.81093 5.81353 3.54559 5.18514 3.30304 4.54864C2.94489 4.56818 2.58674 4.58934 2.22862 4.6105C2.60627 5.44402 3.0084 6.26606 3.37466 7.10445C2.94327 7.91841 2.53955 8.74378 2.12117 9.56261C2.47766 9.57725 2.83419 9.59191 3.19069 9.59678C3.44466 8.94889 3.76047 8.3254 3.98186 7.66446C4.18047 8.37424 4.51744 9.03028 4.79419 9.7091C5.18652 9.73681 5.57719 9.76122 5.96952 9.784ZM13.5541 2.23203H8.46188V2.92888H9.76422V4.0684H8.46188V4.71957H9.76422V5.8591H8.46188V6.51027H9.76422V7.64982H8.46188V8.30096H9.76422V9.44052H8.46188V10.0917H9.76422V11.2312H8.46188V11.984H13.5541V2.23203Z" fill="black"/>
</g>
<defs>
<clipPath id="clip0_736_429">
<rect width="14" height="14" fill="white"/>
</clipPath>
</defs>
</svg>
