<svg width="20" height="20" viewBox="0 0 20 20" fill="none" xmlns="http://www.w3.org/2000/svg">
<g id="octicon:search-16">
<path id="Vector" d="M13.35 14.675C11.8429 15.8448 9.94674 16.3963 8.0474 16.2172C6.14806 16.0382 4.38834 15.1421 3.12642 13.7113C1.8645 12.2806 1.19525 10.4227 1.25489 8.51585C1.31453 6.60902 2.09859 4.79659 3.44746 3.44749C4.79656 2.09862 6.60899 1.31456 8.51582 1.25492C10.4226 1.19528 12.2805 1.86453 13.7113 3.12645C15.1421 4.38837 16.0382 6.14809 16.2172 8.04743C16.3962 9.94677 15.8447 11.8429 14.675 13.35L18.475 17.15C18.5984 17.2646 18.6886 17.4103 18.7361 17.5719C18.7836 17.7335 18.7867 17.9048 18.745 18.068C18.7032 18.2312 18.6183 18.38 18.4991 18.499C18.3798 18.6179 18.2307 18.7024 18.0675 18.7437C17.9045 18.7855 17.7333 18.7826 17.5718 18.7353C17.4104 18.688 17.2646 18.5981 17.15 18.475L13.35 14.675ZM14.375 8.74999C14.3861 8.0045 14.2488 7.26423 13.9712 6.57226C13.6936 5.88029 13.2812 5.25043 12.758 4.71931C12.2347 4.18819 11.6111 3.76642 10.9233 3.47854C10.2355 3.19065 9.49741 3.0424 8.75183 3.0424C8.00626 3.0424 7.26812 3.19065 6.58037 3.47854C5.89261 3.76642 5.26897 4.18819 4.74571 4.71931C4.22245 5.25043 3.81003 5.88029 3.53243 6.57226C3.25483 7.26423 3.11759 8.0045 3.12871 8.74999C3.15073 10.2268 3.75285 11.6357 4.805 12.6723C5.85714 13.7088 7.27485 14.2899 8.75183 14.2899C10.2288 14.2899 11.6465 13.7088 12.6987 12.6723C13.7508 11.6357 14.3529 10.2268 14.375 8.74999Z" fill="white"/>
</g>
</svg>
