<svg width="16" height="16" viewBox="0 0 16 16" fill="none" xmlns="http://www.w3.org/2000/svg">
<g id="system-uicons:duplicate">
<g id="Group">
<path id="Vector" fill-rule="evenodd" clip-rule="evenodd" d="M14.0952 9.5238V3.42856C14.0952 3.02442 13.9347 2.63684 13.6489 2.35107C13.3632 2.0653 12.9756 1.90475 12.5714 1.90475H6.4762C6.07206 1.90475 5.68448 2.0653 5.39871 2.35107C5.11294 2.63684 4.95239 3.02442 4.95239 3.42856V9.5238C4.95239 9.92794 5.11294 10.3155 5.39871 10.6013C5.68448 10.8871 6.07206 11.0476 6.4762 11.0476H12.5714C12.9756 11.0476 13.3632 10.8871 13.6489 10.6013C13.9347 10.3155 14.0952 9.92794 14.0952 9.5238Z" stroke="black" stroke-linecap="round" stroke-linejoin="round"/>
<path id="Vector_2" d="M4.9524 4.95467H3.42859C3.02446 4.95467 2.63687 5.11521 2.3511 5.40098C2.06533 5.68675 1.90479 6.07434 1.90479 6.47848V12.5714C1.90479 12.9756 2.06533 13.3632 2.3511 13.6489C2.63687 13.9347 3.02446 14.0952 3.42859 14.0952H3.43088L9.52612 14.0846C9.92986 14.084 10.3169 13.9232 10.6021 13.6375C10.8874 13.3517 11.0476 12.9645 11.0476 12.5608V11.0499M9.52383 4.19048V8.7619M11.8095 6.47619H7.23812" stroke="black" stroke-linecap="round" stroke-linejoin="round"/>
</g>
</g>
</svg>
