<svg width="16" height="16" viewBox="0 0 16 16" fill="none" xmlns="http://www.w3.org/2000/svg">
<g id="tabler:edit">
<g id="Group">
<path id="Vector" d="M4.66675 4.66666H4.00008C3.64646 4.66666 3.30732 4.80713 3.05727 5.05718C2.80722 5.30723 2.66675 5.64637 2.66675 5.99999V12C2.66675 12.3536 2.80722 12.6928 3.05727 12.9428C3.30732 13.1928 3.64646 13.3333 4.00008 13.3333H10.0001C10.3537 13.3333 10.6928 13.1928 10.9429 12.9428C11.1929 12.6928 11.3334 12.3536 11.3334 12V11.3333" stroke="black" stroke-linecap="round" stroke-linejoin="round"/>
<path id="Vector_2" d="M10.6667 3.33333L12.6667 5.33333M13.59 4.39C13.8526 4.12743 14.0001 3.77132 14.0001 3.4C14.0001 3.02867 13.8526 2.67256 13.59 2.41C13.3274 2.14743 12.9713 1.99992 12.6 1.99992C12.2287 1.99992 11.8726 2.14743 11.61 2.41L6 8V10H8L13.59 4.39Z" stroke="black" stroke-linecap="round" stroke-linejoin="round"/>
</g>
</g>
</svg>
